***************************************************************

Pan's Labyrinth 2006 1080p BluRay DTS x264 - alrmothe

***************************************************************

Title : El laberinto del fauno
YEAR: 2006
GENRE : Drama | Fantasy | War    
imdb URL :http://www.imdb.com/title/tt0457430/
Format: Matroska
Overall bit rate: 18.4 Mbps
Format version: Version 4 / Version 2
File size:  15.3 GiB
Duration:  1h 58mn
Sub:Arabic,English
***************************************************************

Video
Format : AVC 
Format/Info : Advanced Video Codec 
Format profile : High@L4.1 
Format settings, CABAC : Yes 
Format settings, ReFrames : 4 frames  
Codec ID : V_MPEG4/ISO/AVC  
Bit rate : 16.9 Mbps 
Width : 1920 pixels 
Height : 1038 pixels 
Display aspect ratio : 16:9 
Frame rate : 23.976 fps 
Color space : YUV 
Chroma subsampling : 4:2:0 
Bit depth : 8 bits 
Scan type : Progressive 
Bits/(Pixel*Frame) : 0.353 
Stream size: 13.7 GiB 
Title: Pan's Labyrinth 2006 1080p BluRay DTS x264 - alrmothe


Audio#1 
Format: DTS
Format/Info: Digital Theater Systems
Mode: 16
Format settings, Endianness: Big
Codec ID: A_DTS
Bit rate mode: Constant
Bit rate : 1509 Kbps
Channel(s) : 6 channels
Channel positions:Front: L C R, Side: L R, LFE
Sampling rate: 48.0 KHz
Bit depth: 24 bits
Compression mode: Lossy
Stream size: 1.25 GiB
Language : Spanish

*************************************************************** 
http://img201.imageshack.us/img201/6213/vlcsnap2013041115h45m06.png 
http://img20.imageshack.us/img20/6430/vlcsnap2013041115h45m57.png 
http://img255.imageshack.us/img255/1089/vlcsnap2013041115h46m29.png 
http://img22.imageshack.us/img22/5553/vlcsnap2013041115h48m10.png[ 
http://img593.imageshack.us/img593/5890/vlcsnap2013041115h49m59.png 
http://img213.imageshack.us/img213/4091/vlcsnap2013041115h52m01.png 
http://img571.imageshack.us/img571/5223/vlcsnap2013041115h52m45.png 
http://img145.imageshack.us/img145/1161/vlcsnap2013041115h53m22.png 
http://img543.imageshack.us/img543/8955/vlcsnap2013041115h56m02.png 
http://img443.imageshack.us/img443/1158/vlcsnap2013041115h59m36.png 
http://img856.imageshack.us/img856/1356/vlcsnap2013041116h00m45.png